<svg width="900" height="500"><image xmlns:xlink="http://www.w3.org/1999/xlink" xlink:href="img/map.png" width="900" height="500"></image><g transform="translate(152,-10)"><line x1="320" y1="260" x2="320" y2="240" style="stroke: rgb(6, 120, 155); stroke-width: 32.8225645129026px; stroke-opacity: 0.6;"></line><line x1="320" y1="260" x2="320" y2="280" style="stroke: rgb(6, 120, 155); stroke-width: 8.99779955991198px; stroke-opacity: 0.6;"></line><line x1="320" y1="260" x2="300" y2="260" style="stroke: rgb(6, 120, 155); stroke-width: 30.6061212242449px; stroke-opacity: 0.6;"></line><line x1="100" y1="340" x2="80" y2="360" style="stroke: rgb(6, 120, 155); stroke-width: 4.86497299459892px; stroke-opacity: 0.6;"></line><line x1="100" y1="340" x2="120" y2="320" style="stroke: rgb(6, 120, 155); stroke-width: 6.40528105621124px; stroke-opacity: 0.6;"></line><line x1="320" y1="240" x2="320" y2="220" style="stroke: rgb(6, 120, 155); stroke-width: 35.0670134026805px; stroke-opacity: 0.6;"></line><line x1="80" y1="360" x2="60" y2="380" style="stroke: rgb(6, 120, 155); stroke-width: 3.53670734146829px; stroke-opacity: 0.6;"></line><line x1="300" y1="200" x2="280" y2="180" style="stroke: rgb(6, 120, 155); stroke-width: 41.6523304660932px; stroke-opacity: 0.6;"></line><line x1="300" y1="200" x2="320" y2="220" style="stroke: rgb(6, 120, 155); stroke-width: 40.3120624124825px; stroke-opacity: 0.6;"></line><line x1="400" y1="360" x2="420" y2="360" style="stroke: rgb(6, 120, 155); stroke-width: 0.796159231846369px; stroke-opacity: 0.6;"></line><line x1="400" y1="360" x2="420" y2="380" style="stroke: rgb(6, 120, 155); stroke-width: 2.90058011602321px; stroke-opacity: 0.6;"></line><line x1="400" y1="360" x2="380" y2="340" style="stroke: rgb(6, 120, 155); stroke-width: 4.36487297459492px; stroke-opacity: 0.6;"></line><line x1="280" y1="180" x2="260" y2="160" style="stroke: rgb(6, 120, 155); stroke-width: 9.74594918983797px; stroke-opacity: 0.6;"></line><line x1="40" y1="400" x2="20" y2="420" style="stroke: rgb(6, 120, 155); stroke-width: 2.47249449889978px; stroke-opacity: 0.6;"></line><line x1="40" y1="400" x2="60" y2="380" style="stroke: rgb(6, 120, 155); stroke-width: 2.98859771954391px; stroke-opacity: 0.6;"></line><line x1="120" y1="320" x2="140" y2="300" style="stroke: rgb(6, 120, 155); stroke-width: 8.89777955591118px; stroke-opacity: 0.6;"></line><line x1="360" y1="320" x2="340" y2="300" style="stroke: rgb(6, 120, 155); stroke-width: 6.40128025605121px; stroke-opacity: 0.6;"></line><line x1="360" y1="320" x2="380" y2="340" style="stroke: rgb(6, 120, 155); stroke-width: 5.14902980596119px; stroke-opacity: 0.6;"></line><line x1="40" y1="440" x2="20" y2="420" style="stroke: rgb(6, 120, 155); stroke-width: 1.82036407281456px; stroke-opacity: 0.6;"></line><line x1="40" y1="440" x2="60" y2="460" style="stroke: rgb(6, 120, 155); stroke-width: 1.66833366673335px; stroke-opacity: 0.6;"></line><line x1="440" y1="100" x2="460" y2="80" style="stroke: rgb(6, 120, 155); stroke-width: 0.672134426885377px; stroke-opacity: 0.6;"></line><line x1="440" y1="100" x2="420" y2="120" style="stroke: rgb(6, 120, 155); stroke-width: 1.29625925185037px; stroke-opacity: 0.6;"></line><line x1="420" y1="360" x2="440" y2="360" style="stroke: rgb(6, 120, 155); stroke-width: 0.528105621124225px; stroke-opacity: 0.6;"></line><line x1="180" y1="260" x2="160" y2="280" style="stroke: rgb(6, 120, 155); stroke-width: 16.4712942588518px; stroke-opacity: 0.6;"></line><line x1="180" y1="260" x2="300" y2="260" style="stroke: rgb(6, 120, 155); stroke-width: 21.2042408481696px; stroke-opacity: 0.6;"></line><line x1="220" y1="120" x2="240" y2="140" style="stroke: rgb(6, 120, 155); stroke-width: 5.90118023604721px; stroke-opacity: 0.6;"></line><line x1="220" y1="120" x2="200" y2="100" style="stroke: rgb(6, 120, 155); stroke-width: 1.78435687137428px; stroke-opacity: 0.6;"></line><line x1="240" y1="140" x2="260" y2="160" style="stroke: rgb(6, 120, 155); stroke-width: 8.91778355671134px; stroke-opacity: 0.6;"></line><line x1="480" y1="440" x2="460" y2="420" style="stroke: rgb(6, 120, 155); stroke-width: 1.23624724944989px; stroke-opacity: 0.6;"></line><line x1="340" y1="300" x2="320" y2="280" style="stroke: rgb(6, 120, 155); stroke-width: 7.76155231046209px; stroke-opacity: 0.6;"></line><line x1="420" y1="380" x2="440" y2="400" style="stroke: rgb(6, 120, 155); stroke-width: 2.26445289057812px; stroke-opacity: 0.6;"></line><line x1="380" y1="160" x2="360" y2="180" style="stroke: rgb(6, 120, 155); stroke-width: 2.85657131426285px; stroke-opacity: 0.6;"></line><line x1="380" y1="160" x2="400" y2="140" style="stroke: rgb(6, 120, 155); stroke-width: 2.49649929985997px; stroke-opacity: 0.6;"></line><line x1="320" y1="280" x2="300" y2="260" style="stroke: rgb(6, 120, 155); stroke-width: -0.00400080016003201px; stroke-opacity: 0.6;"></line><line x1="320" y1="220" x2="340" y2="200" style="stroke: rgb(6, 120, 155); stroke-width: 3.38067613522705px; stroke-opacity: 0.6;"></line><line x1="100" y1="500" x2="80" y2="480" style="stroke: rgb(6, 120, 155); stroke-width: 0.636127225445089px; stroke-opacity: 0.6;"></line><line x1="100" y1="500" x2="100" y2="480" style="stroke: rgb(6, 120, 155); stroke-width: -0.00400080016003201px; stroke-opacity: 0.6;"></line><line x1="160" y1="280" x2="140" y2="300" style="stroke: rgb(6, 120, 155); stroke-width: 12.4784956991398px; stroke-opacity: 0.6;"></line><line x1="460" y1="80" x2="480" y2="60" style="stroke: rgb(6, 120, 155); stroke-width: 0.440088017603521px; stroke-opacity: 0.6;"></line><line x1="360" y1="180" x2="340" y2="200" style="stroke: rgb(6, 120, 155); stroke-width: 3.10462092418484px; stroke-opacity: 0.6;"></line><line x1="420" y1="120" x2="400" y2="140" style="stroke: rgb(6, 120, 155); stroke-width: 1.92838567713543px; stroke-opacity: 0.6;"></line><line x1="80" y1="480" x2="100" y2="480" style="stroke: rgb(6, 120, 155); stroke-width: 0.720144028805761px; stroke-opacity: 0.6;"></line><line x1="80" y1="480" x2="60" y2="460" style="stroke: rgb(6, 120, 155); stroke-width: 1.53630726145229px; stroke-opacity: 0.6;"></line><line x1="440" y1="400" x2="460" y2="420" style="stroke: rgb(6, 120, 155); stroke-width: 1.84836967393479px; stroke-opacity: 0.6;"></line><circle class="station" cx="320" cy="260" r="4" style="fill: rgb(0, 0, 0);"></circle><circle class="station" cx="100" cy="340" r="4" style="fill: rgb(0, 0, 0);"></circle><circle class="station" cx="320" cy="240" r="4" style="fill: rgb(0, 0, 0);"></circle><circle class="station" cx="80" cy="360" r="4" style="fill: rgb(0, 0, 0);"></circle><circle class="station" cx="300" cy="200" r="4" style="fill: rgb(0, 0, 0);"></circle><circle class="station" cx="40" cy="400" r="4" style="fill: rgb(0, 0, 0);"></circle><circle class="station" cx="400" cy="360" r="4" style="fill: rgb(0, 0, 0);"></circle><circle class="station" cx="420" cy="360" r="4" style="fill: rgb(0, 0, 0);"></circle><circle class="station" cx="120" cy="320" r="4" style="fill: rgb(0, 0, 0);"></circle><circle class="station" cx="360" cy="320" r="4" style="fill: rgb(0, 0, 0);"></circle><circle class="station" cx="40" cy="440" r="4" style="fill: rgb(0, 0, 0);"></circle><circle class="station" cx="440" cy="100" r="4" style="fill: rgb(0, 0, 0);"></circle><circle class="station" cx="20" cy="420" r="4" style="fill: rgb(0, 0, 0);"></circle><circle class="station" cx="280" cy="180" r="8" style="fill: rgb(151, 34, 25);"></circle><circle class="station" cx="440" cy="360" r="4" style="fill: rgb(0, 0, 0);"></circle><circle class="station" cx="220" cy="120" r="4" style="fill: rgb(0, 0, 0);"></circle><circle class="station" cx="240" cy="140" r="4" style="fill: rgb(0, 0, 0);"></circle><circle class="station" cx="180" cy="260" r="4" style="fill: rgb(0, 0, 0);"></circle><circle class="station" cx="480" cy="440" r="4" style="fill: rgb(0, 0, 0);"></circle><circle class="station" cx="340" cy="300" r="4" style="fill: rgb(0, 0, 0);"></circle><circle class="station" cx="60" cy="380" r="4" style="fill: rgb(0, 0, 0);"></circle><circle class="station" cx="420" cy="380" r="4" style="fill: rgb(0, 0, 0);"></circle><circle class="station" cx="380" cy="160" r="4" style="fill: rgb(0, 0, 0);"></circle><circle class="station" cx="320" cy="280" r="4" style="fill: rgb(0, 0, 0);"></circle><circle class="station" cx="320" cy="220" r="4" style="fill: rgb(0, 0, 0);"></circle><circle class="station" cx="100" cy="500" r="4" style="fill: rgb(0, 0, 0);"></circle><circle class="station" cx="160" cy="280" r="4" style="fill: rgb(0, 0, 0);"></circle><circle class="station" cx="260" cy="160" r="4" style="fill: rgb(0, 0, 0);"></circle><circle class="station" cx="460" cy="80" r="4" style="fill: rgb(0, 0, 0);"></circle><circle class="station" cx="360" cy="180" r="4" style="fill: rgb(0, 0, 0);"></circle><circle class="station" cx="480" cy="60" r="4" style="fill: rgb(0, 0, 0);"></circle><circle class="station" cx="420" cy="120" r="4" style="fill: rgb(0, 0, 0);"></circle><circle class="station" cx="140" cy="300" r="4" style="fill: rgb(0, 0, 0);"></circle><circle class="station" cx="200" cy="100" r="4" style="fill: rgb(0, 0, 0);"></circle><circle class="station" cx="340" cy="200" r="4" style="fill: rgb(0, 0, 0);"></circle><circle class="station" cx="80" cy="480" r="4" style="fill: rgb(0, 0, 0);"></circle><circle class="station" cx="380" cy="340" r="4" style="fill: rgb(0, 0, 0);"></circle><circle class="station" cx="440" cy="400" r="4" style="fill: rgb(0, 0, 0);"></circle><circle class="station" cx="60" cy="460" r="4" style="fill: rgb(0, 0, 0);"></circle><circle class="station" cx="460" cy="420" r="4" style="fill: rgb(0, 0, 0);"></circle><circle class="station" cx="400" cy="140" r="4" style="fill: rgb(0, 0, 0);"></circle><circle class="station" cx="300" cy="260" r="4" style="fill: rgb(0, 0, 0);"></circle><circle class="station" cx="100" cy="480" r="4" style="fill: rgb(0, 0, 0);"></circle></g></svg>